<?xml version="1.0" standalone="no"?>
<!DOCTYPE svg PUBLIC "-//W3C//DTD SVG 20010904//EN"
 "http://www.w3.org/TR/2001/REC-SVG-20010904/DTD/svg10.dtd">
<svg version="1.0" xmlns="http://www.w3.org/2000/svg"
 width="1024.000000pt" height="1024.000000pt" viewBox="0 0 1024.000000 1024.000000"
 preserveAspectRatio="xMidYMid meet">
<metadata>
Created by potrace 1.14, written by Peter Selinger 2001-2017
</metadata>
<g transform="translate(0.000000,1024.000000) scale(0.100000,-0.100000)"
fill="#000000" stroke="none">
<path d="M500 5129 l0 -4952 2223 6 c2198 6 2317 8 2692 42 648 60 1280 229
1820 489 844 406 1532 1056 2045 1931 253 433 428 883 524 1350 125 612 150
1313 71 2000 -77 666 -315 1325 -682 1882 -272 415 -633 799 -1028 1095 -508
381 -1071 652 -1725 828 -302 81 -624 137 -1155 199 -131 16 -590 48 -880 63
-284 15 -1509 18 -1865 5 -320 -12 -1644 -10 -1765 2 -55 6 -139 11 -187 11
l-88 0 0 -4951z m4961 3821 c29 -6 85 -13 124 -16 93 -8 214 -29 300 -53 39
-10 106 -29 150 -41 86 -23 132 -39 350 -123 181 -70 532 -246 588 -295 9 -8
17 -12 17 -8 0 6 72 -40 110 -70 26 -21 103 -78 147 -107 27 -19 44 -39 48
-58 9 -41 -11 -360 -34 -539 -17 -129 -31 -224 -36 -240 -2 -8 -6 -31 -9 -50
-2 -19 -12 -75 -21 -125 -17 -97 -41 -229 -54 -310 -5 -27 -19 -93 -31 -145
-12 -52 -23 -107 -26 -121 -5 -37 -40 -185 -58 -249 -9 -30 -30 -109 -47 -175
-17 -66 -37 -139 -45 -163 -8 -23 -34 -118 -59 -210 -25 -92 -56 -203 -70
-247 -13 -44 -31 -109 -41 -145 -9 -36 -24 -83 -34 -105 -10 -22 -29 -71 -41
-108 -24 -68 -36 -81 -45 -49 -3 9 -18 44 -33 77 -56 121 -146 341 -207 510
-2 6 -8 17 -13 25 -5 8 -20 42 -32 75 -12 33 -44 112 -70 175 -26 63 -54 135
-62 160 -9 25 -27 71 -41 101 -14 31 -33 78 -42 105 -9 27 -27 74 -41 104 -13
30 -37 84 -53 120 -60 134 -173 375 -180 385 -4 6 -39 71 -77 145 -129 250
-158 305 -163 310 -3 3 -16 28 -30 55 -13 28 -38 73 -55 100 -17 28 -34 58
-38 68 -4 9 -25 44 -47 77 -22 32 -40 62 -40 65 0 3 -35 58 -77 122 -43 63
-89 132 -102 151 -13 20 -30 43 -38 50 -7 7 -13 19 -13 27 0 7 -3 15 -7 17 -5
2 -21 23 -38 47 -80 118 -215 304 -229 316 -6 6 -17 21 -24 35 -7 14 -27 41
-45 60 -18 19 -52 61 -76 94 -24 32 -51 66 -60 75 -9 10 -31 38 -49 64 l-33
47 389 0 c221 0 412 -4 443 -10z m-921 -42 c17 -12 30 -27 30 -34 0 -7 6 -17
13 -21 7 -4 30 -30 52 -58 21 -27 44 -54 49 -60 6 -5 17 -22 24 -36 12 -22 35
-51 103 -125 10 -12 19 -26 19 -32 0 -6 3 -12 8 -14 4 -1 32 -37 61 -78 30
-41 72 -98 93 -126 21 -28 38 -55 38 -60 0 -5 14 -25 30 -44 16 -19 30 -38 30
-42 0 -4 6 -13 13 -20 6 -7 36 -53 66 -103 30 -49 66 -106 80 -125 33 -43 63
-92 94 -150 13 -25 55 -97 94 -160 38 -63 83 -140 100 -170 17 -30 41 -73 53
-95 13 -22 38 -67 55 -100 17 -33 43 -79 58 -103 15 -23 37 -66 48 -94 11 -29
24 -55 27 -58 26 -20 322 -631 322 -666 0 -8 -31 1 -92 27 -51 22 -138 60
-193 84 -55 23 -120 55 -145 69 -25 14 -53 26 -63 26 -10 0 -46 14 -80 31 -34
18 -91 42 -127 56 -36 13 -74 28 -85 33 -40 18 -92 39 -180 75 -49 20 -110 45
-135 57 -69 31 -79 34 -175 69 -49 17 -108 39 -130 49 -22 10 -71 29 -110 43
-38 14 -95 36 -125 49 -30 14 -82 33 -115 42 -33 10 -85 27 -115 38 -185 67
-559 171 -795 222 -60 14 -141 31 -180 40 -38 9 -83 18 -100 21 -148 20 -270
38 -375 54 -136 22 -230 34 -385 51 -55 6 -124 15 -154 21 -29 5 -57 6 -62 3
-17 -10 -49 7 -49 26 0 10 4 20 10 22 5 2 24 24 42 49 18 26 74 91 123 145
106 116 111 121 200 199 37 33 85 77 107 98 22 20 41 37 44 37 4 0 42 31 83
69 14 13 51 42 81 64 30 22 57 43 60 46 5 6 35 26 170 113 162 104 195 125
285 173 50 26 97 53 105 60 31 24 263 122 395 166 33 11 74 26 90 34 17 8 53
19 79 25 27 6 74 19 105 29 63 21 251 68 296 74 75 10 106 7 135 -15z m3100
-1018 c175 -174 252 -259 300 -329 14 -20 28 -37 33 -39 4 -2 7 -10 7 -18 0
-8 4 -14 10 -14 5 0 16 -12 24 -27 8 -16 23 -37 33 -48 21 -23 150 -217 215
-325 84 -138 248 -475 268 -551 6 -24 17 -53 24 -64 13 -20 51 -137 80 -245 8
-30 18 -66 22 -80 4 -14 17 -63 30 -109 13 -46 33 -133 44 -195 11 -61 25
-140 32 -174 l12 -64 -45 -36 c-24 -20 -61 -53 -83 -74 -21 -21 -41 -38 -45
-38 -3 0 -25 -18 -49 -40 -24 -22 -45 -40 -47 -40 -2 0 -15 -10 -28 -22 -13
-13 -50 -44 -83 -70 -32 -26 -75 -61 -94 -77 -19 -17 -39 -31 -44 -31 -5 0
-16 -8 -25 -18 -9 -10 -47 -42 -86 -72 -38 -30 -72 -57 -75 -60 -3 -3 -27 -21
-55 -39 -27 -19 -52 -38 -55 -41 -12 -13 -111 -80 -119 -80 -5 0 -11 -3 -13
-7 -3 -9 -13 -16 -161 -116 -54 -37 -101 -67 -106 -67 -4 0 -21 -11 -37 -25
-16 -14 -53 -40 -83 -57 -62 -36 -210 -131 -228 -147 -7 -6 -19 -11 -27 -11
-8 0 -16 -3 -18 -7 -1 -5 -37 -26 -78 -47 -41 -22 -89 -50 -106 -63 -34 -25
-113 -67 -461 -244 -133 -68 -245 -121 -248 -117 -7 7 59 187 113 308 21 46
36 83 147 367 35 89 70 177 78 195 15 34 79 200 149 388 22 58 53 147 69 199
16 52 42 129 58 170 112 290 290 937 351 1276 36 201 67 384 79 470 5 33 13
87 19 120 6 33 14 103 17 155 21 279 36 454 41 477 l6 23 32 -22 c17 -13 110
-102 206 -198z m-5295 -514 c199 -19 304 -33 375 -51 30 -7 86 -16 124 -20 38
-3 73 -8 76 -10 4 -2 29 -7 56 -9 57 -6 134 -18 254 -40 71 -13 410 -96 515
-127 17 -4 98 -26 180 -48 83 -22 175 -48 205 -59 30 -11 78 -25 105 -32 83
-21 175 -49 208 -65 18 -8 84 -32 147 -53 330 -113 372 -132 323 -148 -10 -4
-51 -22 -92 -40 -40 -19 -85 -37 -100 -40 -32 -7 -53 -17 -250 -111 -85 -40
-185 -84 -222 -98 -38 -13 -76 -29 -86 -34 -10 -5 -65 -31 -123 -57 -58 -25
-154 -70 -215 -99 -173 -83 -229 -109 -241 -110 -6 0 -26 -8 -45 -17 -19 -10
-83 -41 -144 -71 -139 -68 -342 -174 -375 -197 -14 -9 -61 -36 -105 -60 -44
-24 -123 -71 -175 -105 -52 -34 -106 -68 -120 -75 -14 -7 -27 -16 -30 -19 -3
-4 -42 -29 -87 -56 -46 -28 -83 -53 -83 -57 0 -5 -6 -8 -12 -8 -19 0 -354
-228 -426 -290 -13 -11 -26 -20 -28 -20 -3 0 -17 -11 -32 -25 -15 -14 -43 -36
-62 -48 -19 -11 -39 -26 -45 -33 -5 -6 -28 -24 -50 -40 -22 -16 -44 -34 -50
-40 -5 -5 -28 -23 -50 -39 -22 -16 -45 -34 -51 -40 -16 -14 -138 -122 -188
-166 -23 -19 -57 -48 -77 -62 l-36 -27 -7 72 c-3 40 -6 188 -6 328 -1 254 12
438 45 640 8 52 22 138 30 191 9 52 27 138 40 190 14 52 36 137 50 190 13 52
29 109 36 125 23 58 28 70 53 127 14 32 26 62 26 66 0 16 217 449 261 521 12
19 39 68 60 107 45 84 103 170 133 196 23 20 20 20 311 -7z m1488 -1232 c3 -4
0 -16 -8 -28 -8 -11 -21 -43 -30 -71 -9 -27 -32 -85 -52 -128 -34 -78 -87
-212 -168 -427 -23 -63 -57 -145 -74 -183 -17 -37 -31 -71 -31 -75 0 -4 -14
-41 -31 -82 -50 -123 -171 -467 -255 -725 -25 -77 -61 -185 -79 -240 -19 -55
-39 -122 -45 -150 -7 -27 -13 -57 -15 -65 -2 -8 -15 -53 -30 -100 -27 -90 -59
-219 -95 -385 -11 -55 -28 -129 -36 -165 -72 -304 -125 -684 -154 -1090 -12
-161 -19 -218 -30 -225 -9 -6 -213 184 -343 320 -156 163 -178 187 -193 217
-8 16 -19 28 -24 28 -6 0 -10 5 -10 11 0 6 -31 52 -69 103 -37 50 -77 106 -87
124 -10 17 -22 32 -26 32 -4 0 -8 5 -8 11 0 6 -11 25 -25 43 -14 18 -25 37
-25 42 0 5 -21 41 -46 79 -86 130 -237 439 -268 550 -10 33 -24 69 -31 81 -7
11 -27 67 -44 125 -18 57 -40 133 -51 169 -23 76 -57 204 -63 240 -3 14 -8 43
-12 65 -3 22 -13 72 -20 110 -28 144 -29 132 18 178 24 23 59 55 78 71 19 16
68 59 109 95 41 37 98 84 125 106 28 22 52 43 53 47 2 5 10 8 18 8 8 0 14 4
14 9 0 5 19 21 43 34 23 14 56 39 72 54 47 43 127 107 160 129 17 10 35 22 40
26 41 32 143 111 156 122 39 32 210 146 219 146 5 0 10 4 10 9 0 5 15 15 33
22 17 7 41 21 51 31 11 10 23 18 27 18 4 0 50 29 102 65 52 36 105 69 118 75
33 14 113 61 119 70 3 4 34 23 70 43 163 89 430 241 445 254 6 5 75 39 155 77
80 37 161 76 180 86 39 20 54 23 63 14z m4965 -763 c0 -49 6 -150 12 -225 9
-104 9 -167 1 -268 -7 -73 -14 -164 -16 -203 -3 -38 -7 -81 -10 -95 -3 -14 -9
-56 -14 -95 -23 -179 -88 -485 -122 -572 -6 -15 -12 -35 -14 -43 -13 -66 -35
-135 -61 -195 -7 -16 -25 -66 -40 -110 -14 -44 -34 -96 -44 -115 -9 -19 -32
-69 -51 -110 -18 -41 -41 -87 -51 -102 -10 -14 -18 -33 -18 -41 0 -9 -5 -19
-10 -22 -6 -3 -24 -34 -41 -68 -17 -34 -37 -69 -45 -78 -8 -8 -14 -21 -14 -27
0 -7 -4 -12 -8 -12 -5 0 -19 -21 -32 -47 -13 -27 -31 -56 -40 -66 -9 -9 -23
-30 -31 -45 -8 -15 -17 -29 -20 -32 -3 -3 -14 -20 -23 -38 -27 -53 -65 -63
-193 -52 -123 11 -242 25 -388 46 -55 8 -120 16 -145 19 -25 2 -70 9 -100 15
-30 6 -71 13 -90 16 -78 10 -229 36 -290 49 -430 94 -446 98 -589 141 -62 19
-123 34 -135 34 -11 0 -64 14 -116 31 -52 17 -129 39 -170 50 -41 11 -100 29
-130 41 -58 21 -171 59 -255 84 -27 9 -68 24 -90 34 -22 10 -80 33 -130 51
-117 41 -129 51 -78 72 21 8 64 27 95 41 31 14 59 26 62 26 7 0 221 94 322
141 34 15 93 40 130 54 38 14 92 37 119 50 66 31 151 69 228 101 34 14 78 34
97 44 19 10 89 44 155 75 185 88 604 300 727 368 31 18 85 47 120 66 56 29
150 88 230 143 15 10 32 18 38 18 5 0 10 5 10 10 0 6 4 10 9 10 9 0 100 57
111 70 3 3 23 17 45 31 88 57 130 85 145 96 51 41 234 173 240 173 3 0 15 8
26 18 10 10 51 40 89 67 75 53 208 163 213 177 2 4 8 8 14 8 6 0 21 11 34 25
13 14 25 25 28 25 4 0 71 57 108 93 10 9 23 17 28 17 6 0 10 4 10 8 0 5 21 24
48 42 26 19 58 44 71 57 14 12 28 20 32 18 4 -3 7 -45 7 -94z m-5333 -488 c3
-16 13 -41 20 -58 7 -16 30 -73 50 -125 21 -52 57 -142 80 -200 24 -58 56
-139 71 -180 15 -41 40 -104 56 -140 17 -36 40 -92 53 -126 12 -33 32 -78 43
-100 11 -21 33 -79 50 -129 16 -49 49 -130 71 -180 23 -49 46 -99 51 -110 33
-75 176 -388 195 -425 34 -69 140 -274 194 -375 26 -49 67 -126 91 -170 23
-44 73 -129 110 -190 37 -60 80 -132 96 -160 15 -27 36 -57 46 -66 10 -9 18
-19 18 -22 0 -10 93 -152 102 -155 4 -2 8 -10 8 -17 0 -8 6 -20 13 -27 7 -7
28 -34 45 -61 18 -26 44 -59 57 -73 13 -14 42 -54 65 -90 23 -35 46 -64 51
-64 5 0 9 -7 9 -15 0 -8 5 -15 11 -15 5 0 7 -5 4 -10 -3 -6 1 -13 9 -16 9 -3
16 -11 16 -18 0 -7 15 -27 33 -47 17 -19 38 -46 45 -60 8 -15 25 -38 38 -52
13 -14 24 -29 24 -32 0 -3 9 -16 21 -28 29 -30 149 -184 149 -190 0 -3 -42 -6
-92 -6 -53 0 -94 -5 -96 -11 -5 -13 -464 -14 -478 0 -5 5 -38 10 -74 11 -110
2 -345 32 -425 54 -27 8 -104 28 -170 45 -66 17 -169 49 -230 71 -60 22 -114
42 -120 43 -21 5 -61 19 -90 31 -16 7 -46 19 -65 26 -72 29 -291 141 -396 204
-60 36 -126 75 -147 88 -21 12 -44 27 -50 32 -7 6 -39 28 -71 50 -32 22 -73
50 -90 61 -49 34 -70 62 -69 97 0 33 39 447 48 508 2 19 11 83 20 143 9 59 20
129 24 155 5 25 14 80 21 121 39 264 38 255 91 500 11 52 27 125 34 161 18 88
31 138 60 234 14 44 40 136 59 205 19 69 46 166 61 215 15 50 36 122 46 160
95 339 133 462 157 512 28 56 36 59 47 16z m617 -1143 c34 -16 68 -30 74 -30
11 0 62 -20 141 -56 17 -8 34 -14 37 -14 3 0 34 -13 68 -29 35 -16 101 -46
148 -66 47 -21 108 -48 135 -60 28 -12 68 -28 90 -35 22 -7 76 -29 120 -50
174 -82 236 -110 246 -110 5 0 17 -4 27 -10 9 -5 42 -19 72 -31 30 -11 100
-38 155 -60 133 -52 644 -219 810 -265 33 -9 85 -24 115 -34 86 -28 150 -47
210 -60 30 -7 79 -19 108 -27 29 -7 71 -18 95 -23 23 -5 62 -14 87 -20 25 -6
60 -13 79 -16 18 -2 36 -6 40 -8 4 -3 31 -7 61 -11 71 -7 226 -31 365 -55 98
-17 247 -38 330 -47 17 -1 87 -6 158 -9 135 -7 146 -13 110 -54 -10 -11 -29
-33 -43 -50 -14 -17 -40 -45 -57 -63 -18 -17 -33 -37 -33 -44 0 -7 -4 -13 -9
-13 -6 0 -35 -30 -67 -67 -31 -38 -91 -99 -133 -136 -42 -38 -98 -89 -125
-113 -27 -24 -52 -44 -56 -44 -5 0 -19 -12 -32 -28 -19 -23 -78 -70 -219 -175
-17 -13 -36 -25 -84 -57 -16 -10 -34 -23 -40 -27 -12 -10 -70 -45 -135 -81
-25 -13 -52 -30 -60 -38 -24 -20 -343 -181 -438 -220 -47 -20 -113 -45 -146
-55 -34 -11 -70 -23 -81 -28 -21 -10 -85 -30 -240 -75 -174 -50 -211 -59 -295
-69 l-84 -10 -39 44 c-42 47 -119 143 -207 259 -30 40 -63 82 -74 94 -10 11
-33 44 -51 71 -18 28 -44 62 -57 76 -14 15 -28 34 -32 44 -3 9 -45 76 -94 149
-48 72 -94 144 -102 159 -8 14 -45 71 -82 126 -38 54 -68 102 -68 106 0 5 -34
60 -77 124 -115 174 -121 184 -134 216 -7 17 -25 48 -40 71 -15 22 -50 83 -77
135 -27 52 -62 117 -77 144 -15 28 -77 147 -137 265 -61 118 -114 219 -119
225 -5 5 -9 15 -9 23 0 7 -13 41 -29 75 -16 34 -42 89 -57 122 -15 33 -30 63
-32 68 -8 15 28 6 90 -23z"/>
</g>
</svg>
