{"asset":{"version":"2.0","generator":"babylon.js glTF exporter for 3dsmax 2021 v20210607.3"},"scene":0,"scenes":[{"nodes":[0]}],"nodes":[{"mesh":0,"translation":[0.0,-1.01992619,0.0],"scale":[1.8,1.8,1.8],"name":"T_Shirt_female"}],"meshes":[{"primitives":[{"attributes":{"POSITION":1,"NORMAL":2,"TEXCOORD_0":3},"indices":0,"material":0},{"attributes":{"POSITION":5,"NORMAL":6,"TEXCOORD_0":7},"indices":4,"material":1},{"attributes":{"POSITION":9,"NORMAL":10,"TEXCOORD_0":11},"indices":8,"material":2},{"attributes":{"POSITION":13,"NORMAL":14,"TEXCOORD_0":15},"indices":12,"material":3},{"attributes":{"POSITION":17,"NORMAL":18,"TEXCOORD_0":19},"indices":16,"material":4},{"attributes":{"POSITION":21,"NORMAL":22,"TEXCOORD_0":23},"indices":20,"material":5}],"name":"T_Shirt_female"}],"accessors":[{"bufferView":0,"componentType":5123,"count":4188,"type":"SCALAR","name":"accessorIndices"},{"bufferView":1,"componentType":5126,"count":4188,"max":[0.5405389,1.17470074,0.115375027],"min":[-0.5394456,0.7918028,-0.218513116],"type":"VEC3","name":"accessorPositions"},{"bufferView":1,"byteOffset":50256,"componentType":5126,"count":4188,"type":"VEC3","name":"accessorNormals"},{"bufferView":2,"componentType":5126,"count":4188,"type":"VEC2","name":"accessorUVs"},{"bufferView":0,"byteOffset":8376,"componentType":5123,"count":11394,"type":"SCALAR","name":"accessorIndices"},{"bufferView":1,"byteOffset":100512,"componentType":5126,"count":11394,"max":[0.43308413,1.22005677,0.3164929],"min":[-0.399932742,-0.07497197,-0.3094878],"type":"VEC3","name":"accessorPositions"},{"bufferView":1,"byteOffset":237240,"componentType":5126,"count":11394,"type":"VEC3","name":"accessorNormals"},{"bufferView":2,"byteOffset":33504,"componentType":5126,"count":11394,"type":"VEC2","name":"accessorUVs"},{"bufferView":0,"byteOffset":31164,"componentType":5123,"count":2904,"type":"SCALAR","name":"accessorIndices"},{"bufferView":1,"byteOffset":373968,"componentType":5126,"count":2904,"max":[0.2791136,1.23356974,0.202322513],"min":[-0.225486621,1.00517714,-0.150034189],"type":"VEC3","name":"accessorPositions"},{"bufferView":1,"byteOffset":408816,"componentType":5126,"count":2904,"type":"VEC3","name":"accessorNormals"},{"bufferView":2,"byteOffset":124656,"componentType":5126,"count":2904,"type":"VEC2","name":"accessorUVs"},{"bufferView":0,"byteOffset":36972,"componentType":5123,"count":3240,"type":"SCALAR","name":"accessorIndices"},{"bufferView":1,"byteOffset":443664,"componentType":5126,"count":3240,"max":[0.551870465,0.927322745,0.07287829],"min":[-0.5518704,0.766812563,-0.177933007],"type":"VEC3","name":"accessorPositions"},{"bufferView":1,"byteOffset":482544,"componentType":5126,"count":3240,"type":"VEC3","name":"accessorNormals"},{"bufferView":2,"byteOffset":147888,"componentType":5126,"count":3240,"type":"VEC2","name":"accessorUVs"},{"bufferView":0,"byteOffset":43452,"componentType":5123,"count":3300,"type":"SCALAR","name":"accessorIndices"},{"bufferView":1,"byteOffset":521424,"componentType":5126,"count":3300,"max":[0.391082227,-0.0415767841,0.251064032],"min":[-0.405821532,-0.10031835,-0.3164929],"type":"VEC3","name":"accessorPositions"},{"bufferView":1,"byteOffset":561024,"componentType":5126,"count":3300,"type":"VEC3","name":"accessorNormals"},{"bufferView":2,"byteOffset":173808,"componentType":5126,"count":3300,"type":"VEC2","name":"accessorUVs"},{"bufferView":0,"byteOffset":50052,"componentType":5123,"count":1212,"type":"SCALAR","name":"accessorIndices"},{"bufferView":1,"byteOffset":600624,"componentType":5126,"count":1212,"max":[0.5406325,1.21806061,0.248277292],"min":[-0.536401,-0.07493826,-0.307532579],"type":"VEC3","name":"accessorPositions"},{"bufferView":1,"byteOffset":615168,"componentType":5126,"count":1212,"type":"VEC3","name":"accessorNormals"},{"bufferView":2,"byteOffset":200208,"componentType":5126,"count":1212,"type":"VEC2","name":"accessorUVs"}],"bufferViews":[{"buffer":0,"byteLength":52476,"name":"bufferViewScalar"},{"buffer":0,"byteOffset":52476,"byteLength":629712,"byteStride":12,"name":"bufferViewFloatVec3"},{"buffer":0,"byteOffset":682188,"byteLength":209904,"byteStride":8,"name":"bufferViewFloatVec2"}],"buffers":[{"uri":"model.bin","byteLength":892092}],"materials":[{"pbrMetallicRoughness":{"metallicFactor":0.0,"roughnessFactor":0.450053632},"name":"01 - Default"},{"pbrMetallicRoughness":{"baseColorTexture":{"index":0},"metallicFactor":0.0,"roughnessFactor":0.450053632},"name":"02 - Default"},{"pbrMetallicRoughness":{"baseColorFactor":[0.0,1.0,0.117647067,1.0],"metallicFactor":0.0,"roughnessFactor":0.450053632},"name":"03 - Default"},{"pbrMetallicRoughness":{"baseColorFactor":[0.2784314,0.0,0.9921569,1.0],"metallicFactor":0.0,"roughnessFactor":0.450053632},"name":"04 - Default"},{"pbrMetallicRoughness":{"baseColorFactor":[0.9725491,0.776470661,0.0,1.0],"metallicFactor":0.0,"roughnessFactor":0.450053632},"name":"05 - Default"},{"pbrMetallicRoughness":{"baseColorFactor":[0.0,0.0470588244,0.980392158,1.0],"metallicFactor":0.0,"roughnessFactor":0.450053632},"name":"06 - Default"}],"textures":[{"sampler":0,"source":0,"name":"texture.jpg"}],"images":[{"uri":"./texture.jpg"}],"samplers":[{"magFilter":9729,"minFilter":9987}]}